<?xml version="1.0" encoding="UTF-8" standalone="no"?>
<!DOCTYPE svg PUBLIC "-//W3C//DTD SVG 1.1//EN" "http://www.w3.org/Graphics/SVG/1.1/DTD/svg11.dtd">
<svg xmlns="http://www.w3.org/2000/svg" version="1.1" viewBox="0.00 0.00 104.00 104.00">
<g stroke-width="2.00" fill="none" stroke-linecap="butt">
<path stroke="#8ad5df" vector-effect="non-scaling-stroke" d="
  M 63.85 35.15
  A 0.46 0.46 0.0 0 0 63.40 35.54
  L 62.46 41.60
  A 0.46 0.46 0.0 0 0 62.92 42.13
  L 81.12 42.16
  A 0.46 0.46 0.0 0 0 81.57 41.77
  L 82.57 35.70
  A 0.46 0.46 0.0 0 0 82.12 35.17
  L 63.85 35.15"
/>
<path stroke="#8ad5df" vector-effect="non-scaling-stroke" d="
  M 43.08 61.98
  C 44.74 69.11 33.74 66.05 30.87 64.37
  Q 30.61 64.22 30.50 64.50
  L 28.17 70.44
  Q 28.09 70.65 28.29 70.77
  C 36.49 75.36 50.21 75.11 52.77 64.01
  C 55.41 52.58 40.35 50.87 41.91 44.98
  C 42.98 40.97 50.56 42.74 53.33 43.80
  Q 53.60 43.91 53.66 43.63
  L 55.09 37.23
  Q 55.16 36.93 54.87 36.84
  C 49.62 35.10 42.92 34.55 37.94 37.42
  C 32.06 40.81 30.71 48.15 35.00 53.49
  C 37.05 56.06 42.31 58.70 43.08 61.98"
/>
<path stroke="#8ad5df" vector-effect="non-scaling-stroke" d="
  M 72.21 59.03
  A 0.40 0.40 0.0 0 1 72.18 59.70
  L 59.12 67.47
  Q 58.64 67.76 58.56 68.32
  L 57.79 74.22
  A 0.46 0.46 0.0 0 0 58.47 74.67
  L 81.95 61.40
  A 2.51 2.51 0.0 0 0 82.11 57.13
  L 62.36 43.83
  A 0.22 0.21 20.4 0 0 62.02 43.98
  L 61.12 50.75
  A 0.68 0.66 -68.9 0 0 61.39 51.38
  L 72.21 59.03"
/>
<path stroke="#8ad5df" vector-effect="non-scaling-stroke" d="
  M 24.92 56.89
  A 0.51 0.51 0.0 0 1 25.00 55.99
  C 26.55 55.35 30.59 53.38 29.75 51.31
  Q 29.55 50.81 29.08 51.08
  L 20.70 55.87
  A 0.71 0.70 -42.5 0 0 20.64 57.06
  L 27.46 61.81
  Q 28.56 62.58 28.60 61.23
  L 28.62 60.58
  Q 28.66 59.35 27.63 58.67
  L 24.92 56.89"
/>
</g>
<path fill="#15aabf" d="
  M 48.39 0.00
  L 55.72 0.00
  C 82.00 2.40 101.49 22.17 104.00 48.41
  L 104.00 55.71
  C 101.01 82.00 82.25 101.70 55.60 104.00
  L 48.26 104.00
  C 22.03 101.53 2.43 81.84 0.00 55.62
  L 0.00 48.28
  C 2.58 22.03 22.11 2.37 48.39 0.00
  Z
  M 63.85 35.15
  A 0.46 0.46 0.0 0 0 63.40 35.54
  L 62.46 41.60
  A 0.46 0.46 0.0 0 0 62.92 42.13
  L 81.12 42.16
  A 0.46 0.46 0.0 0 0 81.57 41.77
  L 82.57 35.70
  A 0.46 0.46 0.0 0 0 82.12 35.17
  L 63.85 35.15
  Z
  M 43.08 61.98
  C 44.74 69.11 33.74 66.05 30.87 64.37
  Q 30.61 64.22 30.50 64.50
  L 28.17 70.44
  Q 28.09 70.65 28.29 70.77
  C 36.49 75.36 50.21 75.11 52.77 64.01
  C 55.41 52.58 40.35 50.87 41.91 44.98
  C 42.98 40.97 50.56 42.74 53.33 43.80
  Q 53.60 43.91 53.66 43.63
  L 55.09 37.23
  Q 55.16 36.93 54.87 36.84
  C 49.62 35.10 42.92 34.55 37.94 37.42
  C 32.06 40.81 30.71 48.15 35.00 53.49
  C 37.05 56.06 42.31 58.70 43.08 61.98
  Z
  M 72.21 59.03
  A 0.40 0.40 0.0 0 1 72.18 59.70
  L 59.12 67.47
  Q 58.64 67.76 58.56 68.32
  L 57.79 74.22
  A 0.46 0.46 0.0 0 0 58.47 74.67
  L 81.95 61.40
  A 2.51 2.51 0.0 0 0 82.11 57.13
  L 62.36 43.83
  A 0.22 0.21 20.4 0 0 62.02 43.98
  L 61.12 50.75
  A 0.68 0.66 -68.9 0 0 61.39 51.38
  L 72.21 59.03
  Z
  M 24.92 56.89
  A 0.51 0.51 0.0 0 1 25.00 55.99
  C 26.55 55.35 30.59 53.38 29.75 51.31
  Q 29.55 50.81 29.08 51.08
  L 20.70 55.87
  A 0.71 0.70 -42.5 0 0 20.64 57.06
  L 27.46 61.81
  Q 28.56 62.58 28.60 61.23
  L 28.62 60.58
  Q 28.66 59.35 27.63 58.67
  L 24.92 56.89
  Z"
/>
<path fill="#ffffff" d="
  M 63.85 35.15
  L 82.12 35.17
  A 0.46 0.46 0.0 0 1 82.57 35.70
  L 81.57 41.77
  A 0.46 0.46 0.0 0 1 81.12 42.16
  L 62.92 42.13
  A 0.46 0.46 0.0 0 1 62.46 41.60
  L 63.40 35.54
  A 0.46 0.46 0.0 0 1 63.85 35.15
  Z"
/>
<path fill="#ffffff" d="
  M 30.87 64.37
  C 33.74 66.05 44.74 69.11 43.08 61.98
  C 42.31 58.70 37.05 56.06 35.00 53.49
  C 30.71 48.15 32.06 40.81 37.94 37.42
  C 42.92 34.55 49.62 35.10 54.87 36.84
  Q 55.16 36.93 55.09 37.23
  L 53.66 43.63
  Q 53.60 43.91 53.33 43.80
  C 50.56 42.74 42.98 40.97 41.91 44.98
  C 40.35 50.87 55.41 52.58 52.77 64.01
  C 50.21 75.11 36.49 75.36 28.29 70.77
  Q 28.09 70.65 28.17 70.44
  L 30.50 64.50
  Q 30.61 64.22 30.87 64.37
  Z"
/>
<path fill="#ffffff" d="
  M 72.21 59.03
  L 61.39 51.38
  A 0.68 0.66 -68.9 0 1 61.12 50.75
  L 62.02 43.98
  A 0.22 0.21 20.4 0 1 62.36 43.83
  L 82.11 57.13
  A 2.51 2.51 0.0 0 1 81.95 61.40
  L 58.47 74.67
  A 0.46 0.46 0.0 0 1 57.79 74.22
  L 58.56 68.32
  Q 58.64 67.76 59.12 67.47
  L 72.18 59.70
  A 0.40 0.40 0.0 0 0 72.21 59.03
  Z"
/>
<path fill="#ffffff" d="
  M 24.92 56.89
  L 27.63 58.67
  Q 28.66 59.35 28.62 60.58
  L 28.60 61.23
  Q 28.56 62.58 27.46 61.81
  L 20.64 57.06
  A 0.71 0.70 -42.5 0 1 20.70 55.87
  L 29.08 51.08
  Q 29.55 50.81 29.75 51.31
  C 30.59 53.38 26.55 55.35 25.00 55.99
  A 0.51 0.51 0.0 0 0 24.92 56.89
  Z"
/>
</svg>
